<?xml version="1.0" encoding="UTF-8"?>
<svg width="430" height="126" viewBox="0 0 430 126" xmlns="http://www.w3.org/2000/svg">
    <g fill="#FFF" fill-rule="evenodd">
        <g fill-opacity="0" stroke-width="25" fill="none">
            <path d="M35.04 104.452c22.894 15.442 53.97 9.4 69.412-13.492 15.442-22.894 9.4-53.97-13.492-69.412-22.894-15.442-53.97-9.4-69.412 13.492-15.442 22.894-9.4 53.97 13.492 69.412z" stroke="#BEDB39" stroke-dasharray="160 314"/>
            <path d="M14.185 52.178c-5.977 26.96 11.033 53.66 37.993 59.637 26.96 5.977 53.66-11.033 59.637-37.993 5.977-26.96-11.033-53.66-37.993-59.637-26.96-5.977-53.66 11.033-59.637 37.993z" stroke="#FD7400" stroke-dasharray="55 314"/>
            <path d="M32.91 23.068C10.855 39.687 6.45 71.037 23.067 93.091c16.619 22.053 47.969 26.46 70.023 9.84 22.053-16.618 26.46-47.968 9.84-70.022C86.314 10.856 54.964 6.45 32.91 23.07z" stroke="#1F8A70" stroke-dasharray="30 314"/>
            <path d="M84.126 17.684C59.1 6.014 29.354 16.842 17.684 41.867c-11.67 25.025-.842 54.772 24.183 66.442 25.025 11.67 54.772.842 66.442-24.183 11.67-25.025.842-54.772-24.183-66.442z" stroke="#FFE11A" stroke-dasharray="29 314"/>
            <path d="M50.904 14.485c-26.794 6.68-43.1 33.817-36.419 60.611 6.68 26.794 33.817 43.1 60.611 36.419 26.794-6.68 43.1-33.817 36.419-60.611-6.68-26.794-33.817-43.1-60.611-36.419z" stroke="#BEDB39" stroke-dasharray="15 314"/>
        </g>
        <text font-family="AvenirNext-DemiBold, Avenir Next" font-size="72" font-weight="500" letter-spacing="2.23" transform="translate(-8 -8)">
            <tspan x="148" y="99">Splitsies</tspan>
        </text>
    </g>
</svg>
